<svg width="264" height="82" viewBox="0 0 264 82" fill="none" xmlns="http://www.w3.org/2000/svg">
<path d="M11.2812 49.5L16.75 25.1875H22.6875L21.0312 36.2188L15.6875 59H10.875L11.2812 49.5ZM10.0938 25.1875L13.4688 49.375L13.5 59H7.75L1 25.1875H10.0938ZM26.7188 48.9375L30.0938 25.1875H39.1875L32.5 59H26.75L26.7188 48.9375ZM23.4062 25.1875L28.9062 49.375L29.375 59H24.5312L19.25 36.2812L17.6562 25.1875H23.4062ZM57.25 59.625C54.8958 59.625 52.8021 59.2812 50.9688 58.5938C49.1354 57.9062 47.5938 56.9062 46.3438 55.5938C45.0938 54.2604 44.1458 52.6458 43.5 50.75C42.8542 48.8333 42.5312 46.6562 42.5312 44.2188V41.0312C42.5312 38.3021 42.8229 35.9167 43.4062 33.875C44.0104 31.8125 44.8854 30.0938 46.0312 28.7188C47.1771 27.3438 48.6146 26.3125 50.3438 25.625C52.0729 24.9167 54.0625 24.5625 56.3125 24.5625C58.4167 24.5625 60.2812 24.8958 61.9062 25.5625C63.5312 26.2292 64.8958 27.2396 66 28.5938C67.1042 29.9271 67.9375 31.6146 68.5 33.6562C69.0833 35.6771 69.375 38.0417 69.375 40.75V45.2188H46.3125V38.8125H60.0625V37.875C60.0625 36.5 59.9271 35.4062 59.6562 34.5938C59.3854 33.7812 58.9688 33.1979 58.4062 32.8438C57.8438 32.4688 57.125 32.2812 56.25 32.2812C55.375 32.2812 54.6562 32.4479 54.0938 32.7812C53.5521 33.0938 53.1354 33.5938 52.8438 34.2812C52.5521 34.9688 52.3438 35.875 52.2188 37C52.1146 38.125 52.0625 39.4688 52.0625 41.0312V44.2188C52.0625 45.7396 52.1875 47 52.4375 48C52.6875 48.9792 53.0625 49.7604 53.5625 50.3438C54.0625 50.9062 54.6667 51.3125 55.375 51.5625C56.1042 51.7917 56.9479 51.9062 57.9062 51.9062C59.3021 51.9062 60.6042 51.6667 61.8125 51.1875C63.0417 50.6875 64.0833 49.9583 64.9375 49L68.7812 54.8438C68.1771 55.5938 67.3333 56.3438 66.25 57.0938C65.1875 57.8438 63.8958 58.4583 62.375 58.9375C60.875 59.3958 59.1667 59.625 57.25 59.625ZM88.0625 59.625C85.7083 59.625 83.6146 59.2812 81.7812 58.5938C79.9479 57.9062 78.4062 56.9062 77.1562 55.5938C75.9062 54.2604 74.9583 52.6458 74.3125 50.75C73.6667 48.8333 73.3438 46.6562 73.3438 44.2188V41.0312C73.3438 38.3021 73.6354 35.9167 74.2188 33.875C74.8229 31.8125 75.6979 30.0938 76.8438 28.7188C77.9896 27.3438 79.4271 26.3125 81.1562 25.625C82.8854 24.9167 84.875 24.5625 87.125 24.5625C89.2292 24.5625 91.0938 24.8958 92.7188 25.5625C94.3438 26.2292 95.7083 27.2396 96.8125 28.5938C97.9167 29.9271 98.75 31.6146 99.3125 33.6562C99.8958 35.6771 100.188 38.0417 100.188 40.75V45.2188H77.125V38.8125H90.875V37.875C90.875 36.5 90.7396 35.4062 90.4688 34.5938C90.1979 33.7812 89.7812 33.1979 89.2188 32.8438C88.6562 32.4688 87.9375 32.2812 87.0625 32.2812C86.1875 32.2812 85.4688 32.4479 84.9062 32.7812C84.3646 33.0938 83.9479 33.5938 83.6562 34.2812C83.3646 34.9688 83.1562 35.875 83.0312 37C82.9271 38.125 82.875 39.4688 82.875 41.0312V44.2188C82.875 45.7396 83 47 83.25 48C83.5 48.9792 83.875 49.7604 84.375 50.3438C84.875 50.9062 85.4792 51.3125 86.1875 51.5625C86.9167 51.7917 87.7604 51.9062 88.7188 51.9062C90.1146 51.9062 91.4167 51.6667 92.625 51.1875C93.8542 50.6875 94.8958 49.9583 95.75 49L99.5938 54.8438C98.9896 55.5938 98.1458 56.3438 97.0625 57.0938C96 57.8438 94.7083 58.4583 93.1875 58.9375C91.6875 59.3958 89.9792 59.625 88.0625 59.625ZM119.594 49.8438C119.594 49.2396 119.375 48.7396 118.938 48.3438C118.521 47.9271 117.906 47.5104 117.094 47.0938C116.281 46.6562 115.24 46.125 113.969 45.5C112.531 44.8958 111.219 44.2604 110.031 43.5938C108.844 42.9271 107.823 42.1875 106.969 41.375C106.115 40.5417 105.458 39.5938 105 38.5312C104.562 37.4688 104.344 36.2396 104.344 34.8438C104.344 33.4062 104.604 32.0729 105.125 30.8438C105.646 29.6146 106.417 28.5312 107.438 27.5938C108.479 26.6562 109.729 25.9167 111.188 25.375C112.667 24.8333 114.344 24.5625 116.219 24.5625C118.802 24.5625 121.031 25 122.906 25.875C124.781 26.75 126.219 27.9896 127.219 29.5938C128.24 31.1979 128.75 33.0625 128.75 35.1875H119.25C119.25 34.3958 119.156 33.7188 118.969 33.1562C118.781 32.5729 118.458 32.1354 118 31.8438C117.562 31.5312 116.958 31.375 116.188 31.375C115.688 31.375 115.219 31.5 114.781 31.75C114.365 31.9792 114.021 32.3125 113.75 32.75C113.5 33.1875 113.375 33.7188 113.375 34.3438C113.375 34.8021 113.469 35.1979 113.656 35.5312C113.844 35.8646 114.125 36.1875 114.5 36.5C114.896 36.8125 115.385 37.1354 115.969 37.4688C116.573 37.7812 117.312 38.1458 118.188 38.5625C120.208 39.3125 122.01 40.1354 123.594 41.0312C125.198 41.9271 126.458 43.0417 127.375 44.375C128.312 45.6875 128.781 47.4062 128.781 49.5312C128.781 51.0312 128.49 52.3958 127.906 53.625C127.323 54.8542 126.479 55.9271 125.375 56.8438C124.271 57.7396 122.948 58.4271 121.406 58.9062C119.865 59.3854 118.125 59.625 116.188 59.625C113.438 59.625 111.104 59.0833 109.188 58C107.292 56.8958 105.865 55.5 104.906 53.8125C103.948 52.1042 103.469 50.3333 103.469 48.5H112.375C112.417 49.5833 112.604 50.4375 112.938 51.0625C113.271 51.6667 113.729 52.1042 114.312 52.375C114.917 52.625 115.615 52.75 116.406 52.75C117.135 52.75 117.729 52.6458 118.188 52.4375C118.646 52.2083 118.99 51.875 119.219 51.4375C119.469 50.9792 119.594 50.4479 119.594 49.8438ZM143.219 11V59H133.719V11H143.219ZM141.969 40.9375L139.656 41C139.615 38.625 139.833 36.4375 140.312 34.4375C140.792 32.4375 141.49 30.6979 142.406 29.2188C143.344 27.7396 144.469 26.5938 145.781 25.7812C147.094 24.9688 148.542 24.5625 150.125 24.5625C151.521 24.5625 152.802 24.8021 153.969 25.2812C155.135 25.7604 156.135 26.5208 156.969 27.5625C157.823 28.6042 158.479 29.9688 158.938 31.6562C159.417 33.3438 159.656 35.4062 159.656 37.8438V59H150.125V37.7812C150.125 36.3646 149.979 35.2604 149.688 34.4688C149.417 33.6562 149.01 33.0938 148.469 32.7812C147.948 32.4479 147.281 32.2812 146.469 32.2812C145.552 32.2812 144.802 32.5 144.219 32.9375C143.635 33.375 143.177 33.9896 142.844 34.7812C142.51 35.5521 142.281 36.4688 142.156 37.5312C142.031 38.5729 141.969 39.7083 141.969 40.9375Z" fill="#EBEBEB"/>
<path d="M175.531 11V59H166V11H175.531ZM191.969 25.1875V59H182.438V25.1875H191.969ZM182 16.4375C182 15.0208 182.469 13.8542 183.406 12.9375C184.365 12 185.625 11.5312 187.188 11.5312C188.75 11.5312 190 12 190.938 12.9375C191.875 13.8542 192.344 15.0208 192.344 16.4375C192.344 17.875 191.875 19.0521 190.938 19.9688C190 20.8854 188.75 21.3438 187.188 21.3438C185.625 21.3438 184.365 20.8854 183.406 19.9688C182.469 19.0521 182 17.875 182 16.4375ZM213.156 49.8438C213.156 49.2396 212.938 48.7396 212.5 48.3438C212.083 47.9271 211.469 47.5104 210.656 47.0938C209.844 46.6562 208.802 46.125 207.531 45.5C206.094 44.8958 204.781 44.2604 203.594 43.5938C202.406 42.9271 201.385 42.1875 200.531 41.375C199.677 40.5417 199.021 39.5938 198.562 38.5312C198.125 37.4688 197.906 36.2396 197.906 34.8438C197.906 33.4062 198.167 32.0729 198.688 30.8438C199.208 29.6146 199.979 28.5312 201 27.5938C202.042 26.6562 203.292 25.9167 204.75 25.375C206.229 24.8333 207.906 24.5625 209.781 24.5625C212.365 24.5625 214.594 25 216.469 25.875C218.344 26.75 219.781 27.9896 220.781 29.5938C221.802 31.1979 222.312 33.0625 222.312 35.1875H212.812C212.812 34.3958 212.719 33.7188 212.531 33.1562C212.344 32.5729 212.021 32.1354 211.562 31.8438C211.125 31.5312 210.521 31.375 209.75 31.375C209.25 31.375 208.781 31.5 208.344 31.75C207.927 31.9792 207.583 32.3125 207.312 32.75C207.062 33.1875 206.938 33.7188 206.938 34.3438C206.938 34.8021 207.031 35.1979 207.219 35.5312C207.406 35.8646 207.688 36.1875 208.062 36.5C208.458 36.8125 208.948 37.1354 209.531 37.4688C210.135 37.7812 210.875 38.1458 211.75 38.5625C213.771 39.3125 215.573 40.1354 217.156 41.0312C218.76 41.9271 220.021 43.0417 220.938 44.375C221.875 45.6875 222.344 47.4062 222.344 49.5312C222.344 51.0312 222.052 52.3958 221.469 53.625C220.885 54.8542 220.042 55.9271 218.938 56.8438C217.833 57.7396 216.51 58.4271 214.969 58.9062C213.427 59.3854 211.688 59.625 209.75 59.625C207 59.625 204.667 59.0833 202.75 58C200.854 56.8958 199.427 55.5 198.469 53.8125C197.51 52.1042 197.031 50.3333 197.031 48.5H205.938C205.979 49.5833 206.167 50.4375 206.5 51.0625C206.833 51.6667 207.292 52.1042 207.875 52.375C208.479 52.625 209.177 52.75 209.969 52.75C210.698 52.75 211.292 52.6458 211.75 52.4375C212.208 52.2083 212.552 51.875 212.781 51.4375C213.031 50.9792 213.156 50.4479 213.156 49.8438ZM242.875 25.1875V32.1562H225.281V25.1875H242.875ZM228.906 16.8125H238.406V48.3125C238.406 49.2292 238.479 49.9375 238.625 50.4375C238.792 50.9375 239.073 51.2917 239.469 51.5C239.865 51.6875 240.396 51.7812 241.062 51.7812C241.542 51.7812 241.948 51.7604 242.281 51.7188C242.635 51.6771 242.927 51.625 243.156 51.5625L243.094 58.75C242.365 59.0208 241.583 59.2292 240.75 59.375C239.938 59.5417 239.021 59.625 238 59.625C236.104 59.625 234.479 59.2812 233.125 58.5938C231.792 57.9062 230.75 56.8125 230 55.3125C229.271 53.8125 228.906 51.8542 228.906 49.4375V16.8125Z" fill="#F7B32B" fill-opacity="0.87"/>
<path d="M38 78H229" stroke="white"/>
<rect x="20" y="73" width="9" height="9" fill="#F7B32B"/>
</svg>
